<mxfile host="app.diagrams.net" modified="2024-05-30T13:34:07.491Z" agent="Mozilla/5.0 (Macintosh; Intel Mac OS X 10_15_7) AppleWebKit/537.36 (KHTML, like Gecko) Chrome/125.0.0.0 Safari/537.36" etag="ipDzBpUaHQ2SPY1xn3xw" version="24.4.10" type="github">
  <diagram name="第 1 页" id="sKhAeMaC_fqFlmB3bFWv">
    <mxGraphModel dx="1242" dy="786" grid="0" gridSize="10" guides="1" tooltips="1" connect="1" arrows="1" fold="1" page="0" pageScale="1" pageWidth="827" pageHeight="1169" math="0" shadow="0">
      <root>
        <mxCell id="0" />
        <mxCell id="1" parent="0" />
        <mxCell id="VA46rPlSMpbXN-ITFQDT-10" value=" Diversified instruction prompt" style="swimlane;fillColor=#1ba1e2;strokeColor=#006EAF;rounded=1;startSize=40;fontSize=16;fontColor=#ffffff;" parent="1" vertex="1">
          <mxGeometry x="12" y="336" width="505" height="233" as="geometry" />
        </mxCell>
        <mxCell id="VA46rPlSMpbXN-ITFQDT-11" value="&lt;div style=&quot;&quot;&gt;&lt;div style=&quot;&quot;&gt;&lt;div style=&quot;&quot;&gt;&lt;span style=&quot;font-size: 15px;&quot;&gt;I want you to be the &quot;question rewriter&quot;.&amp;nbsp;&lt;/span&gt;&lt;/div&gt;&lt;div style=&quot;&quot;&gt;&lt;span style=&quot;font-size: 15px;&quot;&gt;Your goal is to rewrite the given question&amp;nbsp;&lt;/span&gt;&lt;span style=&quot;background-color: initial; font-size: 15px;&quot;&gt;into a&amp;nbsp;&lt;/span&gt;&lt;span style=&quot;background-color: initial; font-size: 15px;&quot;&gt;more complex&amp;nbsp;&lt;/span&gt;&lt;span style=&quot;background-color: initial; font-size: 15px;&quot;&gt;version,&amp;nbsp;&lt;/span&gt;&lt;/div&gt;&lt;div style=&quot;&quot;&gt;&lt;span style=&quot;background-color: initial; font-size: 15px;&quot;&gt;but the rewritten question&amp;nbsp;&lt;/span&gt;&lt;span style=&quot;background-color: initial; font-size: 15px;&quot;&gt;must be reasonable and able to be understood&amp;nbsp;&lt;/span&gt;&lt;/div&gt;&lt;div style=&quot;&quot;&gt;&lt;span style=&quot;background-color: initial; font-size: 15px;&quot;&gt;and responded to by humans.&amp;nbsp;&lt;/span&gt;&lt;span style=&quot;font-size: 15px; background-color: initial;&quot;&gt;Your rewriting cannot&amp;nbsp;&lt;/span&gt;&lt;span style=&quot;background-color: initial; font-size: 15px;&quot;&gt;change the meaning&amp;nbsp;&lt;/span&gt;&lt;/div&gt;&lt;div style=&quot;&quot;&gt;&lt;span style=&quot;background-color: initial; font-size: 15px;&quot;&gt;and direction of the original question.&amp;nbsp;&lt;/span&gt;&lt;/div&gt;&lt;div style=&quot;&quot;&gt;&lt;span style=&quot;font-size: 15px;&quot;&gt;Use the following method to complicate a given prompt:&amp;nbsp;&lt;/span&gt;&lt;/div&gt;&lt;div&gt;&lt;span style=&quot;font-size: 15px;&quot;&gt;&lt;font color=&quot;#af4141&quot;&gt;&amp;lt;&lt;/font&gt;&lt;/span&gt;&lt;span style=&quot;background-color: initial; font-size: 15px;&quot;&gt;&lt;font color=&quot;#af4141&quot;&gt;Components&lt;/font&gt;&lt;/span&gt;&lt;span style=&quot;background-color: initial; font-size: 15px;&quot;&gt;&lt;font color=&quot;#af4141&quot;&gt;&amp;gt;&lt;/font&gt;&lt;/span&gt;&lt;span style=&quot;background-color: initial; color: rgba(0, 0, 0, 0); font-family: monospace; font-size: 0px;&quot;&gt;%3CmxGraphModel%3E%3Croot%3E%3CmxCell%20id%3D%220%22%2F%3E%3CmxCell%20id%3D%221%22%20parent%3D%220%22%2F%3E%3CmxCell%20id%3D%222%22%20value%3D%22%26lt%3Bdiv%20style%3D%26quot%3Bforced-color-adjust%3A%20none%3B%20color%3A%20rgb(0%2C%200%2C%200)%3B%20font-family%3A%20Helvetica%3B%20font-size%3A%2012px%3B%20font-style%3A%20normal%3B%20font-variant-ligatures%3A%20normal%3B%20font-variant-caps%3A%20normal%3B%20font-weight%3A%20400%3B%20letter-spacing%3A%20normal%3B%20orphans%3A%202%3B%20text-align%3A%20left%3B%20text-indent%3A%200px%3B%20text-transform%3A%20none%3B%20widows%3A%202%3B%20word-spacing%3A%200px%3B%20-webkit-text-stroke-width%3A%200px%3B%20white-space%3A%20nowrap%3B%20background-color%3A%20rgb(251%2C%20251%2C%20251)%3B%20text-decoration-thickness%3A%20initial%3B%20text-decoration-style%3A%20initial%3B%20text-decoration-color%3A%20initial%3B%26quot%3B%26gt%3B%26lt%3Bspan%20style%3D%26quot%3Bforced-color-adjust%3A%20none%3B%20font-size%3A%2015px%3B%26quot%3B%26gt%3B%26lt%3Bfont%20color%3D%26quot%3B%23af4141%26quot%3B%20style%3D%26quot%3Bforced-color-adjust%3A%20none%3B%26quot%3B%26gt%3Bif%20the%20question%20contains%20certain%20definite%20directions%2C%26amp%3Bnbsp%3B%26lt%3B%2Ffont%26gt%3B%26lt%3B%2Fspan%26gt%3B%26lt%3B%2Fdiv%26gt%3B%26lt%3Bdiv%20style%3D%26quot%3Bforced-color-adjust%3A%20none%3B%20color%3A%20rgb(0%2C%200%2C%200)%3B%20font-family%3A%20Helvetica%3B%20font-size%3A%2012px%3B%20font-style%3A%20normal%3B%20font-variant-ligatures%3A%20normal%3B%20font-variant-caps%3A%20normal%3B%20font-weight%3A%20400%3B%20letter-spacing%3A%20normal%3B%20orphans%3A%202%3B%20text-align%3A%20left%3B%20text-indent%3A%200px%3B%20text-transform%3A%20none%3B%20widows%3A%202%3B%20word-spacing%3A%200px%3B%20-webkit-text-stroke-width%3A%200px%3B%20white-space%3A%20nowrap%3B%20background-color%3A%20rgb(251%2C%20251%2C%20251)%3B%20text-decoration-thickness%3A%20initial%3B%20text-decoration-style%3A%20initial%3B%20text-decoration-color%3A%20initial%3B%26quot%3B%26gt%3B%26lt%3Bspan%20style%3D%26quot%3Bforced-color-adjust%3A%20none%3B%20font-size%3A%2015px%3B%26quot%3B%26gt%3B%26lt%3Bfont%20color%3D%26quot%3B%23af4141%26quot%3B%20style%3D%26quot%3Bforced-color-adjust%3A%20none%3B%26quot%3B%26gt%3Bit%20can%20increase%20the%20depth%20and%20breadth%20of%20the%20inquiry.%26amp%3Bnbsp%3B%26lt%3B%2Ffont%26gt%3B%26lt%3B%2Fspan%26gt%3B%26lt%3B%2Fdiv%26gt%3B%26lt%3Bdiv%20style%3D%26quot%3Bforced-color-adjust%3A%20none%3B%20color%3A%20rgb(0%2C%200%2C%200)%3B%20font-family%3A%20Helvetica%3B%20font-size%3A%2012px%3B%20font-style%3A%20normal%3B%20font-variant-ligatures%3A%20normal%3B%20font-variant-caps%3A%20normal%3B%20font-weight%3A%20400%3B%20letter-spacing%3A%20normal%3B%20orphans%3A%202%3B%20text-align%3A%20left%3B%20text-indent%3A%200px%3B%20text-transform%3A%20none%3B%20widows%3A%202%3B%20word-spacing%3A%200px%3B%20-webkit-text-stroke-width%3A%200px%3B%20white-space%3A%20nowrap%3B%20background-color%3A%20rgb(251%2C%20251%2C%20251)%3B%20text-decoration-thickness%3A%20initial%3B%20text-decoration-style%3A%20initial%3B%20text-decoration-color%3A%20initial%3B%26quot%3B%26gt%3B%26lt%3Bspan%20style%3D%26quot%3Bforced-color-adjust%3A%20none%3B%20font-size%3A%2015px%3B%26quot%3B%26gt%3B%26lt%3Bfont%20color%3D%26quot%3B%23af4141%26quot%3B%20style%3D%26quot%3Bforced-color-adjust%3A%20none%3B%26quot%3B%26gt%3BYou%20should%20try%20to%20avoid%20making%20the%20rewriting%20question%20lengthy.%26lt%3B%2Ffont%26gt%3B%26lt%3B%2Fspan%26gt%3B%26lt%3B%2Fdiv%26gt%3B%22%20style%3D%22text%3BwhiteSpace%3Dwrap%3Bhtml%3D1%3B%22%20vertex%3D%221%22%20parent%3D%221%22%3E%3CmxGeometry%20x%3D%22619.1428571428571%22%20y%3D%22711.2380952380952%22%20width%3D%22434%22%20height%3D%2276%22%20as%3D%22geometry%22%2F%3E%3C%2FmxCell%3E%3C%2Froot%3E%3C%2FmxGraphModel%3E晚上&lt;/span&gt;&lt;/div&gt;&lt;div style=&quot;&quot;&gt;&lt;span style=&quot;font-size: 15px;&quot;&gt;Original question: {question}&lt;/span&gt;&lt;/div&gt;&lt;div style=&quot;&quot;&gt;&lt;span style=&quot;font-size: 15px;&quot;&gt;Rewritten issue:&lt;/span&gt;&lt;/div&gt;&lt;/div&gt;&lt;div style=&quot;font-size: 15px;&quot;&gt;&lt;br&gt;&lt;/div&gt;&lt;/div&gt;" style="text;html=1;align=left;verticalAlign=middle;resizable=0;points=[];autosize=1;fillColor=#dae8fc;rotation=0;rounded=1;arcSize=0;strokeColor=#6c8ebf;" parent="VA46rPlSMpbXN-ITFQDT-10" vertex="1">
          <mxGeometry y="41" width="505" height="192" as="geometry" />
        </mxCell>
        <mxCell id="pP06gRvZdWov1j9uw1yX-1" value="Concrete components" style="swimlane;fillColor=#1ba1e2;strokeColor=#006EAF;rounded=1;startSize=40;fontSize=16;fontColor=#ffffff;" vertex="1" parent="1">
          <mxGeometry x="611" y="399" width="350" height="105" as="geometry" />
        </mxCell>
        <mxCell id="pP06gRvZdWov1j9uw1yX-2" value="&lt;div style=&quot;&quot;&gt;&lt;div style=&quot;&quot;&gt;&lt;div style=&quot;&quot;&gt;&lt;span style=&quot;background-color: initial; font-size: 15px;&quot;&gt;&amp;nbsp;&lt;/span&gt;&lt;/div&gt;&lt;div style=&quot;&quot;&gt;&lt;span style=&quot;color: rgb(175, 65, 65); background-color: initial; font-size: 15px;&quot;&gt;replace general concepts with more specific ones.&lt;/span&gt;&lt;br&gt;&lt;/div&gt;&lt;/div&gt;&lt;div style=&quot;font-size: 15px;&quot;&gt;&lt;br&gt;&lt;/div&gt;&lt;/div&gt;" style="text;html=1;align=left;verticalAlign=middle;resizable=0;points=[];autosize=1;fillColor=#dae8fc;rotation=0;rounded=1;arcSize=0;strokeColor=#6c8ebf;" vertex="1" parent="pP06gRvZdWov1j9uw1yX-1">
          <mxGeometry y="41" width="350" height="66" as="geometry" />
        </mxCell>
        <mxCell id="pP06gRvZdWov1j9uw1yX-3" value="Deepening Components" style="swimlane;fillColor=#1ba1e2;strokeColor=#006EAF;rounded=1;startSize=40;fontSize=16;fontColor=#ffffff;" vertex="1" parent="1">
          <mxGeometry x="609" y="242" width="407" height="125" as="geometry" />
        </mxCell>
        <mxCell id="5CLi_yt19pe0KZkFzt0F-10" value="&lt;div style=&quot;forced-color-adjust: none; color: rgb(0, 0, 0); font-family: Helvetica; font-size: 12px; font-style: normal; font-variant-ligatures: normal; font-variant-caps: normal; font-weight: 400; letter-spacing: normal; orphans: 2; text-align: left; text-indent: 0px; text-transform: none; widows: 2; word-spacing: 0px; -webkit-text-stroke-width: 0px; white-space: nowrap; text-decoration-thickness: initial; text-decoration-style: initial; text-decoration-color: initial;&quot;&gt;&lt;span style=&quot;forced-color-adjust: none; font-size: 15px;&quot;&gt;&lt;font color=&quot;#af4141&quot; style=&quot;forced-color-adjust: none;&quot;&gt;if the question contains certain definite directions,&amp;nbsp;&lt;/font&gt;&lt;/span&gt;&lt;/div&gt;&lt;div style=&quot;forced-color-adjust: none; color: rgb(0, 0, 0); font-family: Helvetica; font-size: 12px; font-style: normal; font-variant-ligatures: normal; font-variant-caps: normal; font-weight: 400; letter-spacing: normal; orphans: 2; text-align: left; text-indent: 0px; text-transform: none; widows: 2; word-spacing: 0px; -webkit-text-stroke-width: 0px; white-space: nowrap; text-decoration-thickness: initial; text-decoration-style: initial; text-decoration-color: initial;&quot;&gt;&lt;span style=&quot;forced-color-adjust: none; font-size: 15px;&quot;&gt;&lt;font color=&quot;#af4141&quot; style=&quot;forced-color-adjust: none;&quot;&gt;it can increase the depth and breadth of the inquiry.&amp;nbsp;&lt;/font&gt;&lt;/span&gt;&lt;/div&gt;&lt;div style=&quot;forced-color-adjust: none; color: rgb(0, 0, 0); font-family: Helvetica; font-size: 12px; font-style: normal; font-variant-ligatures: normal; font-variant-caps: normal; font-weight: 400; letter-spacing: normal; orphans: 2; text-align: left; text-indent: 0px; text-transform: none; widows: 2; word-spacing: 0px; -webkit-text-stroke-width: 0px; white-space: nowrap; text-decoration-thickness: initial; text-decoration-style: initial; text-decoration-color: initial;&quot;&gt;&lt;span style=&quot;forced-color-adjust: none; font-size: 15px;&quot;&gt;&lt;font color=&quot;#af4141&quot; style=&quot;forced-color-adjust: none;&quot;&gt;You should try to avoid making the rewriting question lengthy.&lt;/font&gt;&lt;/span&gt;&lt;/div&gt;" style="text;whiteSpace=wrap;html=1;fillColor=#dae8fc;strokeColor=#6c8ebf;" parent="pP06gRvZdWov1j9uw1yX-3" vertex="1">
          <mxGeometry y="41" width="407" height="84" as="geometry" />
        </mxCell>
        <mxCell id="pP06gRvZdWov1j9uw1yX-5" value="Increased Reasoning Components" style="swimlane;fillColor=#1ba1e2;strokeColor=#006EAF;rounded=1;startSize=40;fontSize=16;fontColor=#ffffff;" vertex="1" parent="1">
          <mxGeometry x="609" y="536" width="392" height="132" as="geometry" />
        </mxCell>
        <mxCell id="pP06gRvZdWov1j9uw1yX-6" value="&lt;div style=&quot;&quot;&gt;&lt;div style=&quot;&quot;&gt;&lt;div style=&quot;&quot;&gt;&lt;span style=&quot;background-color: initial; font-size: 15px;&quot;&gt;&amp;nbsp;&lt;/span&gt;&lt;/div&gt;&lt;div style=&quot;&quot;&gt;&lt;span style=&quot;background-color: initial; font-size: 15px;&quot;&gt;&lt;font color=&quot;#af4141&quot;&gt;If the original question can be solved with just a few&amp;nbsp;&lt;/font&gt;&lt;/span&gt;&lt;/div&gt;&lt;div style=&quot;&quot;&gt;&lt;span style=&quot;background-color: initial; font-size: 15px;&quot;&gt;&lt;font color=&quot;#af4141&quot;&gt;simple thought processes, you can rewrite it to explicitly&amp;nbsp;&lt;/font&gt;&lt;/span&gt;&lt;/div&gt;&lt;div style=&quot;&quot;&gt;&lt;span style=&quot;background-color: initial; font-size: 15px;&quot;&gt;&lt;font color=&quot;#af4141&quot;&gt;require multi-step reasoning&lt;/font&gt;&lt;/span&gt;&lt;/div&gt;&lt;/div&gt;&lt;div style=&quot;font-size: 15px;&quot;&gt;&lt;br&gt;&lt;/div&gt;&lt;/div&gt;" style="text;html=1;align=left;verticalAlign=middle;resizable=0;points=[];autosize=1;fillColor=#dae8fc;rotation=0;rounded=1;arcSize=0;strokeColor=#6c8ebf;" vertex="1" parent="pP06gRvZdWov1j9uw1yX-5">
          <mxGeometry y="31" width="392" height="102" as="geometry" />
        </mxCell>
        <mxCell id="pP06gRvZdWov1j9uw1yX-7" style="edgeStyle=orthogonalEdgeStyle;rounded=0;orthogonalLoop=1;jettySize=auto;html=1;entryX=-0.002;entryY=0.393;entryDx=0;entryDy=0;entryPerimeter=0;" edge="1" parent="1" source="VA46rPlSMpbXN-ITFQDT-11" target="5CLi_yt19pe0KZkFzt0F-10">
          <mxGeometry relative="1" as="geometry" />
        </mxCell>
        <mxCell id="pP06gRvZdWov1j9uw1yX-8" style="edgeStyle=orthogonalEdgeStyle;rounded=0;orthogonalLoop=1;jettySize=auto;html=1;" edge="1" parent="1" source="VA46rPlSMpbXN-ITFQDT-11" target="pP06gRvZdWov1j9uw1yX-2">
          <mxGeometry relative="1" as="geometry" />
        </mxCell>
        <mxCell id="pP06gRvZdWov1j9uw1yX-9" style="edgeStyle=orthogonalEdgeStyle;rounded=0;orthogonalLoop=1;jettySize=auto;html=1;entryX=0.005;entryY=0.569;entryDx=0;entryDy=0;entryPerimeter=0;" edge="1" parent="1" source="VA46rPlSMpbXN-ITFQDT-11" target="pP06gRvZdWov1j9uw1yX-6">
          <mxGeometry relative="1" as="geometry" />
        </mxCell>
      </root>
    </mxGraphModel>
  </diagram>
</mxfile>
